<svg width="187" height="15" viewBox="0 0 187 15" fill="none" xmlns="http://www.w3.org/2000/svg">
<path d="M-2.19345e-05 14.32V0.320006H7.47998C8.62665 0.320006 9.59998 0.460007 10.4 0.740007C11.2 1.02001 11.8 1.41334 12.2 1.92001C12.6 2.42667 12.8 3.04001 12.8 3.76001C12.8 4.54667 12.58 5.21334 12.14 5.76001C11.7 6.30667 11.0333 6.68667 10.14 6.90001L10.2 6.52001C10.8 6.65334 11.3533 6.87334 11.86 7.18001C12.38 7.47334 12.7866 7.86667 13.08 8.36001C13.3866 8.84001 13.54 9.41334 13.54 10.08C13.54 10.8933 13.38 11.5733 13.06 12.12C12.74 12.6533 12.3 13.0867 11.74 13.42C11.1933 13.74 10.5866 13.9733 9.91998 14.12C9.25331 14.2533 8.58665 14.32 7.91998 14.32H-2.19345e-05ZM3.19998 11.48H7.93998C8.37998 11.48 8.76665 11.4267 9.09998 11.32C9.44665 11.2 9.71331 11.0267 9.89998 10.8C10.1 10.56 10.2 10.2667 10.2 9.92001C10.2 9.54667 10.08 9.25334 9.83998 9.04001C9.59998 8.81334 9.29331 8.65334 8.91998 8.56001C8.55998 8.45334 8.19998 8.40001 7.83998 8.40001H3.19998V11.48ZM3.19998 5.86001H7.37998C7.79331 5.86001 8.15331 5.80667 8.45998 5.70001C8.77998 5.58001 9.02665 5.42001 9.19998 5.22001C9.37331 5.02001 9.45998 4.76667 9.45998 4.46001C9.45998 4.00667 9.25331 3.68001 8.83998 3.48001C8.42665 3.26667 7.89998 3.16001 7.25998 3.16001H3.19998V5.86001ZM14.1151 14.32L20.6751 0.320006H23.7951L30.3151 14.32H26.8151L23.0951 6.36001C22.9751 6.06667 22.8485 5.78001 22.7151 5.50001C22.5951 5.22001 22.4818 4.94667 22.3751 4.68001C22.2818 4.41334 22.1885 4.14667 22.0951 3.88001C22.0018 3.60001 21.9151 3.32667 21.8351 3.06001L22.5551 3.04001C22.4618 3.33334 22.3685 3.62001 22.2751 3.90001C22.1818 4.18001 22.0751 4.45334 21.9551 4.72001C21.8485 4.98667 21.7351 5.26001 21.6151 5.54001C21.4951 5.80667 21.3685 6.08667 21.2351 6.38001L17.5351 14.32H14.1151ZM17.1751 11.78L18.2751 9.22001H26.1151L26.7351 11.78H17.1751ZM31.8211 14.32V0.320006H34.8611L40.9011 8.34001L38.9011 8.32001L44.9411 0.320006H47.9411V14.32H44.6411V9.82001C44.6411 8.68667 44.6677 7.63334 44.7211 6.66001C44.7744 5.68667 44.8811 4.70667 45.0411 3.72001L45.3811 4.82001L40.5411 10.92H39.2211L34.3411 4.80001L34.7211 3.72001C34.8811 4.69334 34.9877 5.66667 35.0411 6.64001C35.0944 7.60001 35.1211 8.66001 35.1211 9.82001V14.32H31.8211ZM58.7519 14.52C57.5119 14.52 56.3785 14.34 55.3519 13.98C54.3252 13.6067 53.4385 13.0933 52.6919 12.44C51.9452 11.7867 51.3652 11.02 50.9519 10.14C50.5385 9.26001 50.3319 8.30001 50.3319 7.26001C50.3319 6.22001 50.5385 5.26001 50.9519 4.38001C51.3652 3.50001 51.9452 2.73334 52.6919 2.08001C53.4519 1.42667 54.3385 0.920007 55.3519 0.560007C56.3785 0.186674 57.5052 6.91414e-06 58.7319 6.91414e-06C59.9585 6.91414e-06 61.0852 0.186674 62.1119 0.560007C63.1385 0.920007 64.0252 1.42667 64.7719 2.08001C65.5185 2.73334 66.0985 3.50001 66.5119 4.38001C66.9252 5.26001 67.1319 6.22001 67.1319 7.26001C67.1319 8.30001 66.9252 9.26001 66.5119 10.14C66.0985 11.02 65.5185 11.7867 64.7719 12.44C64.0252 13.0933 63.1385 13.6067 62.1119 13.98C61.0852 14.34 59.9652 14.52 58.7519 14.52ZM58.7319 11.32C59.4519 11.32 60.1119 11.22 60.7119 11.02C61.3252 10.8067 61.8519 10.52 62.2919 10.16C62.7319 9.78667 63.0719 9.35334 63.3119 8.86001C63.5519 8.36667 63.6719 7.83334 63.6719 7.26001C63.6719 6.68667 63.5519 6.15334 63.3119 5.66001C63.0719 5.16667 62.7319 4.74001 62.2919 4.38001C61.8519 4.00667 61.3252 3.72001 60.7119 3.52001C60.1119 3.30667 59.4519 3.20001 58.7319 3.20001C58.0119 3.20001 57.3519 3.30667 56.7519 3.52001C56.1519 3.72001 55.6252 4.00001 55.1719 4.36001C54.7319 4.72001 54.3919 5.14667 54.1519 5.64001C53.9252 6.13334 53.8119 6.67334 53.8119 7.26001C53.8119 7.83334 53.9252 8.37334 54.1519 8.88001C54.3919 9.37334 54.7319 9.80001 55.1719 10.16C55.6252 10.52 56.1519 10.8067 56.7519 11.02C57.3519 11.22 58.0119 11.32 58.7319 11.32ZM75.3717 14.52C74.2917 14.52 73.305 14.42 72.4117 14.22C71.5317 14.0067 70.7317 13.7133 70.0117 13.34C69.305 12.9667 68.6584 12.5333 68.0717 12.04L69.7917 9.42001C70.7517 10.2333 71.725 10.8133 72.7117 11.16C73.6984 11.4933 74.6584 11.66 75.5917 11.66C76.005 11.66 76.4184 11.62 76.8317 11.54C77.2584 11.4467 77.6117 11.3 77.8917 11.1C78.185 10.8867 78.3317 10.5933 78.3317 10.22C78.3317 10.0067 78.265 9.82667 78.1317 9.68001C77.9984 9.52001 77.8117 9.39334 77.5717 9.30001C77.3317 9.19334 77.045 9.10667 76.7117 9.04001C76.3917 8.97334 76.0517 8.92001 75.6917 8.88001C75.3317 8.82667 74.9584 8.77334 74.5717 8.72001C73.665 8.61334 72.865 8.44667 72.1717 8.22001C71.4784 7.99334 70.8784 7.70667 70.3717 7.36001C69.8784 7.01334 69.4984 6.60001 69.2317 6.12001C68.9784 5.62667 68.8517 5.06667 68.8517 4.44001C68.8517 3.74667 69.0117 3.12667 69.3317 2.58001C69.665 2.02001 70.1317 1.55334 70.7317 1.18001C71.3317 0.79334 72.0184 0.500006 72.7917 0.300007C73.5784 0.100007 74.4184 6.91414e-06 75.3117 6.91414e-06C76.2717 6.91414e-06 77.1317 0.0933402 77.8917 0.280007C78.665 0.466674 79.345 0.720007 79.9317 1.04001C80.5184 1.36001 80.9984 1.72001 81.3717 2.12001L79.6117 4.40001C79.2384 4.06667 78.8117 3.79334 78.3317 3.58001C77.8517 3.35334 77.345 3.18001 76.8117 3.06001C76.2784 2.94001 75.7584 2.88001 75.2517 2.88001C74.705 2.88001 74.2184 2.93334 73.7917 3.04001C73.3784 3.13334 73.045 3.27334 72.7917 3.46001C72.5384 3.64667 72.4117 3.88667 72.4117 4.18001C72.4117 4.44667 72.5117 4.66667 72.7117 4.84001C72.925 5.01334 73.1984 5.15334 73.5317 5.26001C73.8784 5.36667 74.2517 5.45334 74.6517 5.52001C75.0517 5.58667 75.4517 5.64001 75.8517 5.68001C76.625 5.78667 77.3717 5.92001 78.0917 6.08001C78.825 6.24001 79.4784 6.46667 80.0517 6.76001C80.625 7.05334 81.0717 7.44667 81.3917 7.94001C81.725 8.43334 81.8917 9.07334 81.8917 9.86001C81.8917 10.8467 81.605 11.6867 81.0317 12.38C80.4717 13.0733 79.6984 13.6067 78.7117 13.98C77.7384 14.34 76.625 14.52 75.3717 14.52ZM96.0742 14.32V0.320006H103.094C104.334 0.320006 105.441 0.506673 106.414 0.880006C107.388 1.24001 108.214 1.74001 108.894 2.38001C109.574 3.02001 110.094 3.76667 110.454 4.62001C110.814 5.46001 110.994 6.36001 110.994 7.32001C110.994 8.29334 110.814 9.20001 110.454 10.04C110.094 10.88 109.574 11.62 108.894 12.26C108.214 12.9 107.381 13.4067 106.394 13.78C105.421 14.14 104.321 14.32 103.094 14.32H96.0742ZM99.4742 12L99.0142 11.32H102.994C103.754 11.32 104.414 11.2133 104.974 11C105.534 10.7867 105.994 10.5 106.354 10.14C106.728 9.76667 107.008 9.34001 107.194 8.86001C107.381 8.36667 107.474 7.85334 107.474 7.32001C107.474 6.78667 107.381 6.28001 107.194 5.80001C107.008 5.32001 106.728 4.90001 106.354 4.54001C105.994 4.16667 105.534 3.87334 104.974 3.66001C104.414 3.43334 103.754 3.32001 102.994 3.32001H98.9542L99.4742 2.68001V12ZM113.357 14.32V0.320006H125.137V3.22001H116.657V11.42H125.337V14.32H113.357ZM115.117 8.58001V5.82001H124.237V8.58001H115.117ZM133.961 14.52C132.881 14.52 131.894 14.42 131.001 14.22C130.121 14.0067 129.321 13.7133 128.601 13.34C127.894 12.9667 127.247 12.5333 126.661 12.04L128.381 9.42001C129.341 10.2333 130.314 10.8133 131.301 11.16C132.287 11.4933 133.247 11.66 134.181 11.66C134.594 11.66 135.007 11.62 135.421 11.54C135.847 11.4467 136.201 11.3 136.481 11.1C136.774 10.8867 136.921 10.5933 136.921 10.22C136.921 10.0067 136.854 9.82667 136.721 9.68001C136.587 9.52001 136.401 9.39334 136.161 9.30001C135.921 9.19334 135.634 9.10667 135.301 9.04001C134.981 8.97334 134.641 8.92001 134.281 8.88001C133.921 8.82667 133.547 8.77334 133.161 8.72001C132.254 8.61334 131.454 8.44667 130.761 8.22001C130.067 7.99334 129.467 7.70667 128.961 7.36001C128.467 7.01334 128.087 6.60001 127.821 6.12001C127.567 5.62667 127.441 5.06667 127.441 4.44001C127.441 3.74667 127.601 3.12667 127.921 2.58001C128.254 2.02001 128.721 1.55334 129.321 1.18001C129.921 0.79334 130.607 0.500006 131.381 0.300007C132.167 0.100007 133.007 6.91414e-06 133.901 6.91414e-06C134.861 6.91414e-06 135.721 0.0933402 136.481 0.280007C137.254 0.466674 137.934 0.720007 138.521 1.04001C139.107 1.36001 139.587 1.72001 139.961 2.12001L138.201 4.40001C137.827 4.06667 137.401 3.79334 136.921 3.58001C136.441 3.35334 135.934 3.18001 135.401 3.06001C134.867 2.94001 134.347 2.88001 133.841 2.88001C133.294 2.88001 132.807 2.93334 132.381 3.04001C131.967 3.13334 131.634 3.27334 131.381 3.46001C131.127 3.64667 131.001 3.88667 131.001 4.18001C131.001 4.44667 131.101 4.66667 131.301 4.84001C131.514 5.01334 131.787 5.15334 132.121 5.26001C132.467 5.36667 132.841 5.45334 133.241 5.52001C133.641 5.58667 134.041 5.64001 134.441 5.68001C135.214 5.78667 135.961 5.92001 136.681 6.08001C137.414 6.24001 138.067 6.46667 138.641 6.76001C139.214 7.05334 139.661 7.44667 139.981 7.94001C140.314 8.43334 140.481 9.07334 140.481 9.86001C140.481 10.8467 140.194 11.6867 139.621 12.38C139.061 13.0733 138.287 13.6067 137.301 13.98C136.327 14.34 135.214 14.52 133.961 14.52ZM142.128 14.32V11.36H145.488V3.28001H142.128V0.320006H152.288V3.28001H148.888V11.36H152.288V14.32H142.128ZM161.558 14.52C160.372 14.52 159.278 14.36 158.278 14.04C157.292 13.72 156.432 13.2533 155.698 12.64C154.965 12.0267 154.398 11.2667 153.998 10.36C153.598 9.45334 153.398 8.42001 153.398 7.26001C153.398 6.22001 153.612 5.26667 154.038 4.40001C154.465 3.52001 155.058 2.75334 155.818 2.10001C156.592 1.44667 157.498 0.940007 158.538 0.580007C159.592 0.220006 160.732 0.0400064 161.958 0.0400064C162.958 0.0400064 163.865 0.15334 164.678 0.380007C165.505 0.59334 166.238 0.87334 166.878 1.22001C167.518 1.56667 168.038 1.94667 168.438 2.36001L166.378 4.62001C165.992 4.31334 165.572 4.04667 165.118 3.82001C164.678 3.59334 164.192 3.40667 163.658 3.26001C163.125 3.11334 162.552 3.04001 161.938 3.04001C161.232 3.04001 160.572 3.14667 159.958 3.36001C159.358 3.57334 158.832 3.87334 158.378 4.26001C157.925 4.63334 157.572 5.08001 157.318 5.60001C157.078 6.10667 156.958 6.66001 156.958 7.26001C156.958 7.99334 157.092 8.63334 157.358 9.18001C157.625 9.71334 157.985 10.1533 158.438 10.5C158.905 10.8333 159.432 11.0867 160.018 11.26C160.618 11.4333 161.252 11.52 161.918 11.52C162.545 11.52 163.125 11.4533 163.658 11.32C164.205 11.1867 164.672 11.0067 165.058 10.78C165.445 10.54 165.745 10.26 165.958 9.94001C166.185 9.60667 166.292 9.24667 166.278 8.86001V8.44001L166.738 9.24001H161.658V6.60001H169.538C169.565 6.78667 169.585 7.00001 169.598 7.24001C169.612 7.48001 169.618 7.70001 169.618 7.90001C169.618 8.08667 169.618 8.21334 169.618 8.28001C169.618 9.28001 169.425 10.1733 169.038 10.96C168.652 11.7333 168.098 12.38 167.378 12.9C166.672 13.42 165.818 13.82 164.818 14.1C163.832 14.38 162.745 14.52 161.558 14.52ZM171.934 14.32V0.320006H175.134L184.474 10.32L183.974 10.22C183.894 9.72667 183.827 9.26001 183.774 8.82001C183.734 8.36667 183.7 7.93334 183.674 7.52001C183.647 7.10667 183.62 6.70001 183.594 6.30001C183.58 5.90001 183.574 5.49334 183.574 5.08001C183.574 4.65334 183.574 4.22001 183.574 3.78001V0.320006H186.874V14.32H183.634L173.974 4.00001L174.834 4.14001C174.887 4.46001 174.927 4.77334 174.954 5.08001C174.994 5.38667 175.034 5.70667 175.074 6.04001C175.114 6.36001 175.147 6.70001 175.174 7.06001C175.2 7.42001 175.214 7.81334 175.214 8.24001C175.227 8.66667 175.234 9.13334 175.234 9.64001V14.32H171.934Z" fill="white"/>
</svg>
