<svg width="193" height="15" viewBox="0 0 193 15" fill="none" xmlns="http://www.w3.org/2000/svg">
<path d="M2.96 14.32V0.320006H10.44C11.5867 0.320006 12.56 0.460007 13.36 0.740007C14.16 1.02001 14.76 1.41334 15.16 1.92001C15.56 2.42667 15.76 3.04001 15.76 3.76001C15.76 4.54667 15.54 5.21334 15.1 5.76001C14.66 6.30667 13.9933 6.68667 13.1 6.90001L13.16 6.52001C13.76 6.65334 14.3133 6.87334 14.82 7.18001C15.34 7.47334 15.7467 7.86667 16.04 8.36001C16.3467 8.84001 16.5 9.41334 16.5 10.08C16.5 10.8933 16.34 11.5733 16.02 12.12C15.7 12.6533 15.26 13.0867 14.7 13.42C14.1533 13.74 13.5467 13.9733 12.88 14.12C12.2133 14.2533 11.5467 14.32 10.88 14.32H2.96ZM6.16 11.48H10.9C11.34 11.48 11.7267 11.4267 12.06 11.32C12.4067 11.2 12.6733 11.0267 12.86 10.8C13.06 10.56 13.16 10.2667 13.16 9.92001C13.16 9.54667 13.04 9.25334 12.8 9.04001C12.56 8.81334 12.2533 8.65334 11.88 8.56001C11.52 8.45334 11.16 8.40001 10.8 8.40001H6.16V11.48ZM6.16 5.86001H10.34C10.7533 5.86001 11.1133 5.80667 11.42 5.70001C11.74 5.58001 11.9867 5.42001 12.16 5.22001C12.3333 5.02001 12.42 4.76667 12.42 4.46001C12.42 4.00667 12.2133 3.68001 11.8 3.48001C11.3867 3.26667 10.86 3.16001 10.22 3.16001H6.16V5.86001ZM17.0752 14.32L23.6352 0.320006H26.7552L33.2752 14.32H29.7752L26.0552 6.36001C25.9352 6.06667 25.8085 5.78001 25.6752 5.50001C25.5552 5.22001 25.4418 4.94667 25.3352 4.68001C25.2418 4.41334 25.1485 4.14667 25.0552 3.88001C24.9618 3.60001 24.8752 3.32667 24.7952 3.06001L25.5152 3.04001C25.4218 3.33334 25.3285 3.62001 25.2352 3.90001C25.1418 4.18001 25.0352 4.45334 24.9152 4.72001C24.8085 4.98667 24.6952 5.26001 24.5752 5.54001C24.4552 5.80667 24.3285 6.08667 24.1952 6.38001L20.4952 14.32H17.0752ZM20.1352 11.78L21.2352 9.22001H29.0752L29.6952 11.78H20.1352ZM34.7811 14.32V0.320006H37.8211L43.8611 8.34001L41.8611 8.32001L47.9011 0.320006H50.9011V14.32H47.6011V9.82001C47.6011 8.68667 47.6278 7.63334 47.6811 6.66001C47.7344 5.68667 47.8411 4.70667 48.0011 3.72001L48.3411 4.82001L43.5011 10.92H42.1811L37.3011 4.80001L37.6811 3.72001C37.8411 4.69334 37.9478 5.66667 38.0011 6.64001C38.0544 7.60001 38.0811 8.66001 38.0811 9.82001V14.32H34.7811ZM61.7119 14.52C60.4719 14.52 59.3385 14.34 58.3119 13.98C57.2852 13.6067 56.3985 13.0933 55.6519 12.44C54.9052 11.7867 54.3252 11.02 53.9119 10.14C53.4985 9.26001 53.2919 8.30001 53.2919 7.26001C53.2919 6.22001 53.4985 5.26001 53.9119 4.38001C54.3252 3.50001 54.9052 2.73334 55.6519 2.08001C56.4119 1.42667 57.2985 0.920007 58.3119 0.560007C59.3385 0.186674 60.4652 6.91414e-06 61.6919 6.91414e-06C62.9185 6.91414e-06 64.0452 0.186674 65.0719 0.560007C66.0985 0.920007 66.9852 1.42667 67.7319 2.08001C68.4785 2.73334 69.0585 3.50001 69.4719 4.38001C69.8852 5.26001 70.0919 6.22001 70.0919 7.26001C70.0919 8.30001 69.8852 9.26001 69.4719 10.14C69.0585 11.02 68.4785 11.7867 67.7319 12.44C66.9852 13.0933 66.0985 13.6067 65.0719 13.98C64.0452 14.34 62.9252 14.52 61.7119 14.52ZM61.6919 11.32C62.4119 11.32 63.0719 11.22 63.6719 11.02C64.2852 10.8067 64.8119 10.52 65.2519 10.16C65.6919 9.78667 66.0319 9.35334 66.2719 8.86001C66.5119 8.36667 66.6319 7.83334 66.6319 7.26001C66.6319 6.68667 66.5119 6.15334 66.2719 5.66001C66.0319 5.16667 65.6919 4.74001 65.2519 4.38001C64.8119 4.00667 64.2852 3.72001 63.6719 3.52001C63.0719 3.30667 62.4119 3.20001 61.6919 3.20001C60.9719 3.20001 60.3119 3.30667 59.7119 3.52001C59.1119 3.72001 58.5852 4.00001 58.1319 4.36001C57.6919 4.72001 57.3519 5.14667 57.1119 5.64001C56.8852 6.13334 56.7719 6.67334 56.7719 7.26001C56.7719 7.83334 56.8852 8.37334 57.1119 8.88001C57.3519 9.37334 57.6919 9.80001 58.1319 10.16C58.5852 10.52 59.1119 10.8067 59.7119 11.02C60.3119 11.22 60.9719 11.32 61.6919 11.32ZM78.3317 14.52C77.2517 14.52 76.2651 14.42 75.3717 14.22C74.4917 14.0067 73.6917 13.7133 72.9717 13.34C72.2651 12.9667 71.6184 12.5333 71.0317 12.04L72.7517 9.42001C73.7117 10.2333 74.6851 10.8133 75.6717 11.16C76.6584 11.4933 77.6184 11.66 78.5517 11.66C78.9651 11.66 79.3784 11.62 79.7917 11.54C80.2184 11.4467 80.5717 11.3 80.8517 11.1C81.1451 10.8867 81.2917 10.5933 81.2917 10.22C81.2917 10.0067 81.2251 9.82667 81.0917 9.68001C80.9584 9.52001 80.7717 9.39334 80.5317 9.30001C80.2917 9.19334 80.0051 9.10667 79.6717 9.04001C79.3517 8.97334 79.0117 8.92001 78.6517 8.88001C78.2917 8.82667 77.9184 8.77334 77.5317 8.72001C76.6251 8.61334 75.8251 8.44667 75.1317 8.22001C74.4384 7.99334 73.8384 7.70667 73.3317 7.36001C72.8384 7.01334 72.4584 6.60001 72.1917 6.12001C71.9384 5.62667 71.8117 5.06667 71.8117 4.44001C71.8117 3.74667 71.9717 3.12667 72.2917 2.58001C72.6251 2.02001 73.0917 1.55334 73.6917 1.18001C74.2917 0.79334 74.9784 0.500006 75.7517 0.300007C76.5384 0.100007 77.3784 6.91414e-06 78.2717 6.91414e-06C79.2317 6.91414e-06 80.0917 0.0933402 80.8517 0.280007C81.6251 0.466674 82.3051 0.720007 82.8917 1.04001C83.4784 1.36001 83.9584 1.72001 84.3317 2.12001L82.5717 4.40001C82.1984 4.06667 81.7717 3.79334 81.2917 3.58001C80.8117 3.35334 80.3051 3.18001 79.7717 3.06001C79.2384 2.94001 78.7184 2.88001 78.2117 2.88001C77.6651 2.88001 77.1784 2.93334 76.7517 3.04001C76.3384 3.13334 76.0051 3.27334 75.7517 3.46001C75.4984 3.64667 75.3717 3.88667 75.3717 4.18001C75.3717 4.44667 75.4717 4.66667 75.6717 4.84001C75.8851 5.01334 76.1584 5.15334 76.4917 5.26001C76.8384 5.36667 77.2117 5.45334 77.6117 5.52001C78.0117 5.58667 78.4117 5.64001 78.8117 5.68001C79.5851 5.78667 80.3317 5.92001 81.0517 6.08001C81.7851 6.24001 82.4384 6.46667 83.0117 6.76001C83.5851 7.05334 84.0317 7.44667 84.3517 7.94001C84.6851 8.43334 84.8517 9.07334 84.8517 9.86001C84.8517 10.8467 84.5651 11.6867 83.9917 12.38C83.4317 13.0733 82.6584 13.6067 81.6717 13.98C80.6984 14.34 79.5851 14.52 78.3317 14.52ZM99.0342 14.32V0.320006H106.054C107.294 0.320006 108.401 0.506673 109.374 0.880006C110.348 1.24001 111.174 1.74001 111.854 2.38001C112.534 3.02001 113.054 3.76667 113.414 4.62001C113.774 5.46001 113.954 6.36001 113.954 7.32001C113.954 8.29334 113.774 9.20001 113.414 10.04C113.054 10.88 112.534 11.62 111.854 12.26C111.174 12.9 110.341 13.4067 109.354 13.78C108.381 14.14 107.281 14.32 106.054 14.32H99.0342ZM102.434 12L101.974 11.32H105.954C106.714 11.32 107.374 11.2133 107.934 11C108.494 10.7867 108.954 10.5 109.314 10.14C109.688 9.76667 109.968 9.34001 110.154 8.86001C110.341 8.36667 110.434 7.85334 110.434 7.32001C110.434 6.78667 110.341 6.28001 110.154 5.80001C109.968 5.32001 109.688 4.90001 109.314 4.54001C108.954 4.16667 108.494 3.87334 107.934 3.66001C107.374 3.43334 106.714 3.32001 105.954 3.32001H101.914L102.434 2.68001V12ZM116.317 14.32V0.320006H128.097V3.22001H119.617V11.42H128.297V14.32H116.317ZM118.077 8.58001V5.82001H127.197V8.58001H118.077ZM136.921 14.52C135.841 14.52 134.854 14.42 133.961 14.22C133.081 14.0067 132.281 13.7133 131.561 13.34C130.854 12.9667 130.207 12.5333 129.621 12.04L131.341 9.42001C132.301 10.2333 133.274 10.8133 134.261 11.16C135.247 11.4933 136.207 11.66 137.141 11.66C137.554 11.66 137.967 11.62 138.381 11.54C138.807 11.4467 139.161 11.3 139.441 11.1C139.734 10.8867 139.881 10.5933 139.881 10.22C139.881 10.0067 139.814 9.82667 139.681 9.68001C139.547 9.52001 139.361 9.39334 139.121 9.30001C138.881 9.19334 138.594 9.10667 138.261 9.04001C137.941 8.97334 137.601 8.92001 137.241 8.88001C136.881 8.82667 136.507 8.77334 136.121 8.72001C135.214 8.61334 134.414 8.44667 133.721 8.22001C133.027 7.99334 132.427 7.70667 131.921 7.36001C131.427 7.01334 131.047 6.60001 130.781 6.12001C130.527 5.62667 130.401 5.06667 130.401 4.44001C130.401 3.74667 130.561 3.12667 130.881 2.58001C131.214 2.02001 131.681 1.55334 132.281 1.18001C132.881 0.79334 133.567 0.500006 134.341 0.300007C135.127 0.100007 135.967 6.91414e-06 136.861 6.91414e-06C137.821 6.91414e-06 138.681 0.0933402 139.441 0.280007C140.214 0.466674 140.894 0.720007 141.481 1.04001C142.067 1.36001 142.547 1.72001 142.921 2.12001L141.161 4.40001C140.787 4.06667 140.361 3.79334 139.881 3.58001C139.401 3.35334 138.894 3.18001 138.361 3.06001C137.827 2.94001 137.307 2.88001 136.801 2.88001C136.254 2.88001 135.767 2.93334 135.341 3.04001C134.927 3.13334 134.594 3.27334 134.341 3.46001C134.087 3.64667 133.961 3.88667 133.961 4.18001C133.961 4.44667 134.061 4.66667 134.261 4.84001C134.474 5.01334 134.747 5.15334 135.081 5.26001C135.427 5.36667 135.801 5.45334 136.201 5.52001C136.601 5.58667 137.001 5.64001 137.401 5.68001C138.174 5.78667 138.921 5.92001 139.641 6.08001C140.374 6.24001 141.027 6.46667 141.601 6.76001C142.174 7.05334 142.621 7.44667 142.941 7.94001C143.274 8.43334 143.441 9.07334 143.441 9.86001C143.441 10.8467 143.154 11.6867 142.581 12.38C142.021 13.0733 141.247 13.6067 140.261 13.98C139.287 14.34 138.174 14.52 136.921 14.52ZM145.088 14.32V11.36H148.448V3.28001H145.088V0.320006H155.248V3.28001H151.848V11.36H155.248V14.32H145.088ZM164.518 14.52C163.332 14.52 162.238 14.36 161.238 14.04C160.252 13.72 159.392 13.2533 158.658 12.64C157.925 12.0267 157.358 11.2667 156.958 10.36C156.558 9.45334 156.358 8.42001 156.358 7.26001C156.358 6.22001 156.572 5.26667 156.998 4.40001C157.425 3.52001 158.018 2.75334 158.778 2.10001C159.552 1.44667 160.458 0.940007 161.498 0.580007C162.552 0.220006 163.692 0.0400064 164.918 0.0400064C165.918 0.0400064 166.825 0.15334 167.638 0.380007C168.465 0.59334 169.198 0.87334 169.838 1.22001C170.478 1.56667 170.998 1.94667 171.398 2.36001L169.338 4.62001C168.952 4.31334 168.532 4.04667 168.078 3.82001C167.638 3.59334 167.152 3.40667 166.618 3.26001C166.085 3.11334 165.512 3.04001 164.898 3.04001C164.192 3.04001 163.532 3.14667 162.918 3.36001C162.318 3.57334 161.792 3.87334 161.338 4.26001C160.885 4.63334 160.532 5.08001 160.278 5.60001C160.038 6.10667 159.918 6.66001 159.918 7.26001C159.918 7.99334 160.052 8.63334 160.318 9.18001C160.585 9.71334 160.945 10.1533 161.398 10.5C161.865 10.8333 162.392 11.0867 162.978 11.26C163.578 11.4333 164.212 11.52 164.878 11.52C165.505 11.52 166.085 11.4533 166.618 11.32C167.165 11.1867 167.632 11.0067 168.018 10.78C168.405 10.54 168.705 10.26 168.918 9.94001C169.145 9.60667 169.252 9.24667 169.238 8.86001V8.44001L169.698 9.24001H164.618V6.60001H172.498C172.525 6.78667 172.545 7.00001 172.558 7.24001C172.572 7.48001 172.578 7.70001 172.578 7.90001C172.578 8.08667 172.578 8.21334 172.578 8.28001C172.578 9.28001 172.385 10.1733 171.998 10.96C171.612 11.7333 171.058 12.38 170.338 12.9C169.632 13.42 168.778 13.82 167.778 14.1C166.792 14.38 165.705 14.52 164.518 14.52ZM174.894 14.32V0.320006H178.094L187.434 10.32L186.934 10.22C186.854 9.72667 186.787 9.26001 186.734 8.82001C186.694 8.36667 186.66 7.93334 186.634 7.52001C186.607 7.10667 186.58 6.70001 186.554 6.30001C186.54 5.90001 186.534 5.49334 186.534 5.08001C186.534 4.65334 186.534 4.22001 186.534 3.78001V0.320006H189.834V14.32H186.594L176.934 4.00001L177.794 4.14001C177.847 4.46001 177.887 4.77334 177.914 5.08001C177.954 5.38667 177.994 5.70667 178.034 6.04001C178.074 6.36001 178.107 6.70001 178.134 7.06001C178.16 7.42001 178.174 7.81334 178.174 8.24001C178.187 8.66667 178.194 9.13334 178.194 9.64001V14.32H174.894Z" fill="#CD3796"/>
</svg>
